<svg xmlns="http://www.w3.org/2000/svg" viewBox="0 0 1440 320">
    <path fill="#5d3394" fill-opacity="1"
        d="M0,256L26.7,218.7C53.3,181,107,107,160,85.3C213.3,64,267,96,320,133.3C373.3,171,427,213,480,218.7C533.3,224,587,192,640,170.7C693.3,149,747,139,800,160C853.3,181,907,235,960,250.7C1013.3,267,1067,245,1120,202.7C1173.3,160,1227,96,1280,74.7C1333.3,53,1387,75,1413,85.3L1440,96L1440,320L1413.3,320C1386.7,320,1333,320,1280,320C1226.7,320,1173,320,1120,320C1066.7,320,1013,320,960,320C906.7,320,853,320,800,320C746.7,320,693,320,640,320C586.7,320,533,320,480,320C426.7,320,373,320,320,320C266.7,320,213,320,160,320C106.7,320,53,320,27,320L0,320Z">
    </path>
</svg>